<mxfile host="app.diagrams.net" modified="2023-05-04T14:24:33.267Z" agent="Mozilla/5.0 (Windows NT 10.0; Win64; x64) AppleWebKit/537.36 (KHTML, like Gecko) Chrome/112.0.0.0 Safari/537.36 Edg/112.0.1722.68" version="21.1.2" etag="yT4VqvVWEh3G9GFW9JdE" type="github">
  <diagram name="Page-1" id="aN1XMTHRm2RZgAyk5FQk">
    <mxGraphModel>
      <root>
        <mxCell id="0" />
        <mxCell id="1" parent="0" />
      </root>
    </mxGraphModel>
  </diagram>
</mxfile>
